# AST/ASF file generated using VICON BodyLanguage
# -----------------------------------------------
:version 1.10
:name VICON
:units
  mass 1.0
  length 0.45
  angle deg
:documentation
   .ast/.asf automatically generated from VICON data using
   VICON BodyBuilder and BodyLanguage model FoxedUp or BRILLIANT.MOD
:root
   order TX TY TZ RX RY RZ
   axis XYZ
   position 0 0 0  
   orientation 0 0 0 
:bonedata
  begin
     id 1 
     name lhipjoint
     direction 0.611804 -0.747784 0.257906 
     length 2.29243 
     axis 0 0 0  XYZ
  end
  begin
     id 2 
     name lfemur
     direction 0.34202 -0.939693 0  
     length 7.31159  
     axis 0 0 20  XYZ
    dof rx ry rz
    limits (-160.0 20.0)
           (-70.0 70.0)
           (-60.0 70.0)
  end
  begin
     id 3 
     name ltibia
     direction 0.34202 -0.939693 0   
     length 7.33391   
     axis 0 0 20   XYZ
    dof rx
    limits (-10.0 170.0)
  end
  begin
     id 4 
     name lfoot
     direction 0.122263 -0.335914 0.933924   
     length 1.76083   
     axis -90 7.62852e-016 20   XYZ
    dof rx rz
    limits (-45.0 90.0)
           (-70.0 20.0)
  end
  begin
     id 5 
     name ltoes
     direction 1.53533e-011 -4.2177e-011 1   
     length 0.879206   
     axis -90 7.62852e-016 20   XYZ
    dof rx
    limits (-90.0 20.0)
  end
  begin
     id 6 
     name rhipjoint
     direction -0.646469 -0.721248 0.248754   
     length 2.37677  
     axis 0 0 0  XYZ 
  end
  begin
     id 7 
     name rfemur
     direction -0.34202 -0.939693 0   
     length 7.18623   
     axis 0 0 -20   XYZ
    dof rx ry rz
    limits (-160.0 20.0)
           (-70.0 70.0)
           (-70.0 60.0)
  end
  begin
     id 8 
     name rtibia
     direction -0.34202 -0.939693 0   
     length 7.36567   
     axis 0 0 -20   XYZ
    dof rx
    limits (-10.0 170.0)
 end
 begin
     id 9 
     name rfoot
     direction -0.126681 -0.348054 0.928876   
     length 1.71902  
     axis -90 -7.62852e-016 -20   XYZ
    dof rx rz
    limits (-45.0 90.0)
           (-20.0 70.0)
  end
  begin
     id 10 
     name rtoes
     direction -1.53551e-011 -4.21898e-011 1   
     length 0.857792   
     axis -90 -7.62852e-016 -20   XYZ
    dof rx
    limits (-90.0 20.0)
  end
  begin
     id 11 
     name lowerback
     direction 0.0106509 0.999778 0.0181844   
     length 2.07668   
     axis 0 0 0   XYZ
    dof rx ry rz
    limits (-20.0 45.0)
           (-30.0 30.0)
           (-30.0 30.0)
  end
  begin
     id 12 
     name upperback
     direction -0.00456018 0.999989 -0.000590935   
     length 2.08011   
     axis 0 0 0   XYZ
    dof rx ry rz
    limits (-20.0 45.0)
           (-30.0 30.0)
           (-30.0 30.0)
  end
  begin
     id 13 
     name thorax
     direction -0.00910382 0.999916 -0.00923765   
     length 2.07397   
     axis 0 0 0   XYZ
    dof rx ry rz
    limits (-20.0 45.0)
           (-30.0 30.0)
           (-30.0 30.0)
  end
  begin
     id 14 
     name lowerneck
     direction 0.00171967 0.99778 0.0665733   
     length 1.67556   
     axis 0 0 0   XYZ
    dof rx ry rz
    limits (-20.0 45.0)
           (-30.0 30.0)
           (-30.0 30.0)
  end
  begin
     id 15 
     name upperneck
     direction -0.0143166 0.991302 -0.130828   
     length 1.68462   
     axis 0 0 0   XYZ
    dof rx ry rz
    limits (-20.0 45.0)
           (-30.0 30.0)
           (-30.0 30.0)
  end
  begin
     id 16
     name head
     direction -0.00606378 0.998665 -0.0512995  
     length 1.69269  
     axis 0 0 0   XYZ
    dof rx ry rz
    limits (-20.0 45.0)
           (-30.0 30.0)
           (-30.0 30.0)
  end
  begin
     id 17 
     name lclavicle
     direction 0.9638 0.179341 0.197297  
     length 4.12888  
     axis 0 0 0   XYZ
    dof ry rz
    limits (-20.0 10.0)
           (0.0 20.0)
  end
  begin
     id 18 
     name lhumerus
     direction 1 -4.48972e-011 -2.47351e-027   
     length 5.01834   
     axis -180 -30 -90   XYZ
    dof rx ry rz
    limits (-60.0 90.0)
           (-90.0 90.0)
           (-90.0 90.0)
  end
  begin
     id 19
     name lradius
     direction 1 -4.48965e-011 1.51591e-026   
     length 3.4869   
     axis -180 -30 -90   XYZ
    dof rx
    limits (-10.0 170.0)
  end
  begin
     id 20
     name lwrist
     direction 1 -4.48957e-011 2.70032e-026   
     length 1.74345   
     axis -1.81515e-014 90 90   XYZ
    dof ry
    limits (-180.0 0.0)
 end
  begin
     id 21 
     name lhand
     direction 1 -4.48951e-011 5.40064e-026   
     length 0.76799   
     axis -3.44607e-014 90 90   XYZ
    dof rx rz
    limits (-90.0 90.0)
           (-45.0 45.0)
  end
  begin
     id 22 
     name lfingers
     direction 1 -4.48971e-011 1.08013e-025   
     length 0.619174   
     axis -6.89214e-014 90 90   XYZ
    dof rx
    limits (0.0 90.0)
  end
  begin
     id 23
     name lthumb
     direction 0.707107 -6.34931e-011 0.707107   
     length 0.889013   
     axis -90 45 2.85299e-015   XYZ
    dof rx rz
    limits (-45.0 45.0)
           (-45.0 45.0)
  end
  begin
     id 24 
     name rclavicle
     direction -0.961409 0.252588 0.109054   
     length 4.04305  
     axis 0 0 0   XYZ 
    dof ry rz
    limits (-10.0 20.0)
           (-20.0 0.0)
  end
  begin
     id 25 
     name rhumerus
     direction -1 -4.4897e-011 1.33872e-017  
     length 4.70164   
     axis -180 30 90   XYZ
    dof rx ry rz
    limits (-90.0 60.0)
           (-90.0 90.0)
           (-90.0 90.0)
  end
  begin
     id 26 
     name rradius
     direction -1 -4.48954e-011 1.83844e-026   
     length 3.49911   
     axis -180 30 90   XYZ
    dof rx
    limits (-10.0 170.0)
  end
  begin
     id 27 
     name rwrist
     direction -1 -4.49008e-011 2.70032e-026   
     length 1.74955   
     axis -1.81515e-014 -90 -90   XYZ
    dof ry
    limits (-180.0 0.0)
  end
  begin
     id 28
     name rhand
     direction -1 -4.48916e-011 5.40064e-026   
     length 0.739335   
     axis -3.44607e-014 -90 -90   XYZ
    dof rx rz
    limits (-90.0 90.0)
           (-45.0 45.0)
  end
  begin
     id 29
     name rfingers
     direction -1 -4.48987e-011 1.08013e-025   
     length 0.596071   
     axis -6.89214e-014 -90 -90   XYZ
    dof rx
    limits (0.0 90.0)
  end
  begin
     id 30
     name rthumb
     direction -0.707107 -6.34935e-011 0.707107   
     length 0.855843   
     axis -90 -45 -2.85299e-015   XYZ
    dof rx rz
    limits (-45.0 45.0)
           (-45.0 45.0)
  end
:hierarchy
  begin
    root lhipjoint rhipjoint lowerback
    lhipjoint lfemur
    lfemur ltibia
    ltibia lfoot
    lfoot ltoes
    rhipjoint rfemur
    rfemur rtibia
    rtibia rfoot
    rfoot rtoes
    lowerback upperback
    upperback thorax
    thorax lowerneck lclavicle rclavicle
    lowerneck upperneck
    upperneck head
    lclavicle lhumerus
    lhumerus lradius
    lradius lwrist
    lwrist lhand lthumb
    lhand lfingers
    rclavicle rhumerus
    rhumerus rradius
    rradius rwrist
    rwrist rhand rthumb
    rhand rfingers
  end

#!OML:ASF I:\salsa\salsa 7_09\Patient 1\Session 1\dancermale.ASF
:FULLY-SPECIFIED
:DEGREES
1
root -13.3856 17.5052 1.44897 -179.182 85.5736 171.325
lowerback -6.96148 1.02505 2.52722
upperback 1.2709 1.17168 -0.531787
thorax 5.29337 0.665411 -1.83901
lowerneck -3.51335 -1.62962 -0.979654
upperneck 6.81572 -2.2277 2.06555
head 2.81628 -1.04737 0.755386
rclavicle -8.07563e-015 1.21259e-014
rhumerus -95.0636 37.2935 -131.467
rradius 87.4014
rwrist 26.7649
rhand 135.344 86.4637
rfingers 7.12502
rthumb -17.4529 64.2998
lclavicle -8.07563e-015 1.21259e-014
lhumerus -106.534 -48.7261 145.163
lradius 87.9085
lwrist 5.98057
lhand -36.0328 31.1856
lfingers 7.12502
lthumb -9.14145 60.9675
rfemur -7.28012 2.72541 18.2219
rtibia 6.91171
rfoot -14.2397 -19.498
rtoes -5.57653
lfemur -12.5876 -6.70958 -13.5772
ltibia 16.7415
lfoot -22.5545 6.31125
ltoes 9.50699
2
root -13.4069 17.5131 1.36706 -179.021 85.6564 171.515
lowerback -6.80291 1.04245 2.46759
upperback 1.18636 1.20497 -0.530215
thorax 5.11515 0.677156 -1.80302
lowerneck -3.67115 -1.69228 -0.751472
upperneck 7.01395 -2.28694 1.48686
head 2.90046 -1.08869 0.525867
rclavicle 7.28049e-015 -2.24627e-014
rhumerus -95.082 37.0862 -131.431
rradius 87.0291
rwrist 28.4025
rhand 132.809 88.9071
rfingers 7.12502
rthumb -19.8907 62.0908
lclavicle 7.28049e-015 -2.24627e-014
lhumerus -106.583 -48.7935 145.335
lradius 87.8044
lwrist 5.89094
lhand -36.0228 30.9415
lfingers 7.12502
lthumb -9.13184 60.7238
rfemur -7.50267 3.2421 17.9486
rtibia 7.25305
rfoot -14.3097 -19.9803
rtoes -5.42786
lfemur -12.1418 -6.71019 -13.8368
ltibia 15.6469
lfoot -21.4251 6.65328
ltoes 4.96526
3
root -13.427 17.521 1.28224 -178.461 85.7712 172.03
lowerback -6.68014 1.08953 2.49336
upperback 1.05128 1.27184 -0.565098
thorax 4.9092 0.70786 -1.84935
lowerneck -3.70524 -1.77203 -0.274826
upperneck 7.10985 -2.37229 0.760088
head 2.92135 -1.14285 0.205833
rclavicle -6.68413e-015 -2.78299e-015
rhumerus -95.1132 36.8143 -131.397
rradius 86.687
rwrist 29.9334
rhand 130.411 268.416
rfingers 7.12502
rthumb -22.1942 59.6701
lclavicle -6.68413e-015 -2.78299e-015
lhumerus -106.824 -48.8689 145.595
lradius 87.7402
lwrist 5.81993
lhand -36.1342 30.8586
lfingers 7.12502
lthumb -9.23928 60.6362
rfemur -7.78209 3.78926 17.6917
rtibia 7.52462
rfoot -14.3116 -20.4749
rtoes -5.5619
lfemur -11.6574 -6.80294 -14.0772
ltibia 14.3465
lfoot -20.1554 7.05237
ltoes 0.653966
4
root -13.4405 17.5275 1.19599 -177.906 85.8621 172.484
lowerback -6.70509 1.10969 2.47393
upperback 0.93248 1.30188 -0.581784
thorax 4.80075 0.720083 -1.85313
lowerneck -3.77474 -1.84632 0.223985
upperneck 7.18664 -2.44803 -0.0122809
head 2.94226 -1.19354 -0.132342
rclavicle -2.20899e-014 7.05686e-015
rhumerus -95.1471 36.5955 -131.404
rradius 86.2775
rwrist 31.3942
rhand 128.148 265.362
rfingers 7.12502
rthumb -24.3658 56.8907
lclavicle -2.20899e-014 7.05686e-015
lhumerus -106.967 -48.9103 145.749
lradius 87.7077
lwrist 5.85982
lhand -36.2647 30.765
lfingers 7.12502
lthumb -9.36524 60.537
rfemur -8.11171 4.09506 17.4103
rtibia 7.81625
rfoot -14.3237 -20.8391
rtoes -5.39413
lfemur -11.3852 -6.6879 -14.3308
ltibia 13.4076
lfoot -19.0501 7.15953
ltoes -3.94252
5
root -13.4468 17.5318 1.10771 -178.287 86.0016 172.06
lowerback -6.7431 0.995717 2.28845
upperback 0.973515 1.15963 -0.489203
thorax 4.85152 0.644168 -1.6674
lowerneck -4.43675 -1.85463 1.05967
upperneck 7.31627 -2.39643 -1.6985
head 3.08189 -1.20735 -0.829787
rclavicle 2.11209e-015 -2.98177e-015
rhumerus -95.3148 36.9003 -131.531
rradius 85.8846
rwrist 32.7619
rhand 126.135 261.95
rfingers 7.12502
rthumb -26.2939 53.7524
lclavicle 2.11209e-015 -2.98177e-015
lhumerus -106.288 -48.8698 145.259
lradius 87.6708
lwrist 5.93757
lhand -36.165 30.5362
lfingers 7.12502
lthumb -9.26897 60.3125
rfemur -8.38118 4.32291 17.0468
rtibia 8.16862
rfoot -14.4927 -21.0578
rtoes -4.40248
lfemur -11.305 -6.01316 -14.7482
ltibia 12.9743
lfoot -18.3102 7.00167
ltoes -5.20455
6
root -13.4524 17.5362 1.01782 -178.665 86.2679 171.695
lowerback -6.62321 0.782406 2.0918
upperback 1.22377 0.882736 -0.302155
thorax 5.02525 0.50258 -1.39274
lowerneck -5.9384 -1.62266 0.621918
upperneck 7.62123 -2.06047 -1.7017
head 3.48588 -1.06152 -0.766537
rclavicle 1.1455e-014 3.29983e-014
rhumerus -95.4332 37.8932 -131.678
rradius 85.4958
rwrist 34.0912
rhand 124.205 258.169
rfingers 7.12502
rthumb -28.1401 50.261
lclavicle 1.1455e-014 3.29983e-014
lhumerus -104.659 -48.9336 144.005
lradius 87.6611
lwrist 6.1053
lhand -35.7318 30.2855
lfingers 7.12502
lthumb -8.85103 60.0799
rfemur -8.64086 4.5222 16.7054
rtibia 8.61353
rfoot -14.8 -21.094
rtoes -3.21097
lfemur -11.2443 -4.9962 -15.2043
ltibia 12.7852
lfoot -17.6162 6.94955
ltoes -9.29815
7
root -13.4615 17.5395 0.928883 -179.02 86.5443 171.35
lowerback -6.58305 0.797263 2.11236
upperback 1.2111 0.904909 -0.366028
thorax 4.99162 0.514685 -1.46874
lowerneck -6.26513 -1.5799 0.497885
upperneck 7.81639 -2.00131 -1.5732
head 3.62103 -1.03186 -0.706503
rclavicle -1.13556e-014 2.98177e-015
rhumerus -95.4323 37.8591 -131.897
rradius 85.0226
rwrist 35.4936
rhand 122.287 253.68
rfingers 7.12502
rthumb -29.9721 46.0877
lclavicle -1.13556e-014 2.98177e-015
lhumerus -104.567 -48.9525 143.73
lradius 87.8243
lwrist 6.37601
lhand -35.2963 30.2098
lfingers 7.12502
lthumb -8.43072 60.0215
rfemur -8.95686 4.55991 16.3704
rtibia 9.12523
rfoot -15.1523 -20.9949
rtoes -2.29859
lfemur -11.0808 -4.33602 -15.553
ltibia 12.5335
lfoot -17.183 6.59048
ltoes -10.1815
8
root -13.4772 17.5404 0.838382 -179.759 86.7269 170.543
lowerback -6.52876 0.841245 2.22661
upperback 1.142 0.962629 -0.505218
thorax 4.89582 0.547068 -1.67234
lowerneck -6.37525 -1.59123 0.535094
upperneck 7.81492 -2.02561 -1.52691
head 3.64187 -1.04155 -0.700533
rclavicle 1.69464e-014 5.96354e-015
rhumerus -95.3774 37.6426 -132.068
rradius 84.5558
rwrist 36.9501
rhand 120.354 248.837
rfingers 7.12502
rthumb -31.8144 41.5942
lclavicle 1.69464e-014 5.96354e-015
lhumerus -104.816 -49.0553 143.75
lradius 87.9019
lwrist 6.30788
lhand -35.2033 30.0903
lfingers 7.12502
lthumb -8.34098 59.9056
rfemur -9.42445 4.39677 15.9597
rtibia 9.69626
rfoot -15.3804 -20.8678
rtoes -2.06526
lfemur -11.0366 -3.85317 -15.9453
ltibia 12.2357
lfoot -16.7106 6.31967
ltoes -11.1377
9
root -13.4969 17.5403 0.746928 -180.118 86.9529 170.041
lowerback -6.51339 0.992543 2.46983
upperback 1.07252 1.15564 -0.717242
thorax 4.8337 0.651314 -2.00925
lowerneck -6.42236 -1.70045 0.69319
upperneck 7.6506 -2.19286 -1.51759
head 3.58987 -1.12035 -0.732431
rclavicle 9.88954e-015 8.05078e-015
rhumerus -95.2408 37.1502 -132.12
rradius 83.9065
rwrist 39.674
rhand 117.392 237.492
rfingers 7.12502
rthumb -34.6313 30.8501
lclavicle 9.88954e-015 8.05078e-015
lhumerus -105.403 -49.3948 144.088
lradius 87.9017
lwrist 6.13681
lhand -35.2235 29.8438
lfingers 7.12502
lthumb -8.36043 59.6583
rfemur -10.0508 4.22139 15.5581
rtibia 10.3559
rfoot -15.6054 -20.7076
rtoes -1.51674
lfemur -11.0866 -3.59092 -16.2819
ltibia 12.0104
lfoot -16.3478 6.11683
ltoes -11.2606
